<svg version="1.1" id="Layer_1" xmlns="http://www.w3.org/2000/svg" xmlns:xlink="http://www.w3.org/1999/xlink" x="0px" y="0px"
	 width="100%" viewBox="0 0 1024 1024" enable-background="new 0 0 1024 1024" xml:space="preserve">
<path fill="#111119" opacity="1.000000" stroke="none" 
	d="
M575.000000,1025.000000 
	C383.333344,1025.000000 192.166672,1025.000000 1.000000,1025.000000 
	C1.000000,683.666687 1.000000,342.333344 1.000000,1.000000 
	C342.333344,1.000000 683.666687,1.000000 1025.000000,1.000000 
	C1025.000000,342.333344 1025.000000,683.666687 1025.000000,1025.000000 
	C875.166687,1025.000000 725.333313,1025.000000 575.000000,1025.000000 
M209.794968,435.127289 
	C207.194489,448.381104 204.594009,461.634918 201.993530,474.888733 
	C201.567764,474.908936 201.141983,474.929169 200.716217,474.949402 
	C200.145096,473.519196 199.476273,472.119476 199.019318,470.653687 
	C196.697845,463.207062 194.391083,455.755371 192.154984,448.282745 
	C188.936722,437.528046 188.964462,437.515472 177.710617,437.973175 
	C177.238251,437.992401 176.774658,438.227478 176.569733,438.286438 
	C172.850891,450.855591 169.189087,463.231964 165.527267,475.608368 
	C164.995590,475.514038 164.463913,475.419708 163.932236,475.325348 
	C160.905182,460.550476 157.878143,445.775574 154.850052,430.995636 
	C149.524673,430.995636 144.427902,430.995636 139.248459,430.995636 
	C139.204605,431.643463 139.048538,432.151703 139.157745,432.594543 
	C143.452209,450.007416 147.574646,467.466125 152.151550,484.804840 
	C155.494995,497.470886 155.763519,497.402191 168.811523,497.121216 
	C169.113159,497.114716 169.410507,496.908997 170.177917,496.619843 
	C174.084457,484.315277 178.081757,471.724792 182.401947,458.117310 
	C184.128845,463.611542 185.472488,467.886261 186.816010,472.160980 
	C188.209259,476.593933 189.560623,481.040527 191.003677,485.457184 
	C194.901810,497.387970 194.917343,497.386047 207.379807,497.156006 
	C207.850616,497.147369 208.318100,496.959442 209.730515,496.645142 
	C215.253723,475.084290 220.862411,453.189697 226.592896,430.819702 
	C221.297562,430.819702 217.294357,430.996948 213.315857,430.759705 
	C210.484467,430.590912 209.869247,432.001007 209.794968,435.127289 
M561.113708,453.342224 
	C556.920288,447.958130 552.346741,442.822144 548.629333,437.127319 
	C543.952271,429.962372 537.549805,430.072357 530.534973,431.250580 
	C530.534973,453.286499 530.534973,475.043762 530.534973,496.989929 
	C535.419434,496.989929 540.050415,496.989929 545.295898,496.989929 
	C545.295898,482.898010 545.295898,468.907043 545.295898,454.916046 
	C545.855591,454.688263 546.415283,454.460480 546.975037,454.232666 
	C555.725220,467.531708 564.449219,480.848206 573.268982,494.100922 
	C574.089233,495.333374 575.434814,496.899292 576.678040,497.037628 
	C580.245300,497.434601 583.885376,497.177521 587.510498,497.177521 
	C587.510498,474.795532 587.510498,453.019806 587.510498,431.078064 
	C582.555481,431.078064 577.809998,431.078064 572.668701,431.078064 
	C572.668701,443.563324 572.668701,455.790710 572.668701,469.499023 
	C568.404602,463.527069 564.974426,458.722931 561.113708,453.342224 
M691.667664,497.180908 
	C694.608582,497.180908 697.549500,497.180908 700.311279,497.180908 
	C700.311279,484.282593 700.311279,471.999115 700.311279,459.634338 
	C708.667847,455.710632 713.362976,458.347687 713.914734,467.499603 
	C714.044861,469.657471 713.983826,471.827789 713.985779,473.992371 
	C713.992493,481.621124 713.988403,489.249878 713.988403,496.851990 
	C718.932739,496.851990 723.500061,496.851990 728.180603,496.851990 
	C728.180603,486.704346 728.185120,476.885345 728.174622,467.066345 
	C728.173401,465.901794 728.118713,464.735413 728.040649,463.573120 
	C727.263611,452.009338 721.097412,445.759003 709.549683,445.844177 
	C705.220276,445.876099 700.906433,447.644867 696.579285,448.593170 
	C695.240540,448.886505 693.491699,449.752655 692.590454,449.226440 
	C681.359619,442.669312 670.100159,446.403717 658.841919,448.285400 
	C658.841919,464.884430 658.841919,480.920654 658.841919,496.995148 
	C663.674377,496.995148 668.137817,496.995148 673.168213,496.995148 
	C673.168213,483.932678 673.168213,471.046906 673.168213,458.227936 
	C683.774597,457.386566 685.992981,459.283234 686.120789,469.222839 
	C686.238464,478.371094 686.145813,487.522064 686.145813,496.957123 
	C687.844482,497.039337 689.307678,497.110138 691.667664,497.180908 
M286.248291,461.962494 
	C285.941315,463.429688 285.566833,464.886414 285.337769,466.365662 
	C282.737427,483.157043 292.969025,495.200195 308.778503,493.851807 
	C311.393646,493.628754 313.959930,492.832733 316.537964,492.303711 
	C317.181549,498.886078 314.115570,502.957123 307.522339,502.950073 
	C301.807953,502.943970 296.094604,501.973114 289.930908,501.385803 
	C289.272522,504.687714 288.514862,508.487244 287.699341,512.577087 
	C291.751495,513.442566 295.110535,514.440735 298.537689,514.815247 
	C302.163483,515.211487 305.862274,515.201294 309.515015,515.042786 
	C322.900452,514.461853 330.735840,506.585144 331.005737,493.156342 
	C331.233398,481.829498 331.069580,470.494812 331.077606,459.163574 
	C331.080170,455.548798 331.078033,451.934021 331.078033,447.368561 
	C322.603638,446.855652 314.641724,445.704620 306.749146,446.066376 
	C296.990723,446.513611 289.878052,451.623566 286.248291,461.962494 
M429.037811,494.546478 
	C440.828400,501.116180 452.853607,498.089691 464.923889,495.856354 
	C464.923889,471.357849 464.923889,447.294006 464.923889,422.812164 
	C460.106567,423.604919 455.600342,424.346436 450.748016,425.144928 
	C450.748016,432.718872 450.748016,439.943451 450.748016,447.590546 
	C449.000366,447.068054 447.774750,446.557587 446.499481,446.344177 
	C439.190613,445.121155 432.255798,445.616211 426.267700,450.708099 
	C415.851105,459.565674 414.453339,485.645660 429.037811,494.546478 
M788.181030,472.470520 
	C788.112732,470.641418 788.127075,468.804840 787.962952,466.984375 
	C786.653870,452.461792 777.082886,444.511963 762.622925,445.980377 
	C760.423462,446.203735 758.258423,446.766296 755.651733,447.251160 
	C755.651733,438.931458 755.651733,431.152008 755.651733,422.721466 
	C750.572266,423.571930 745.936035,424.348175 741.350098,425.115997 
	C741.350098,448.824097 741.350098,472.092743 741.350098,496.184753 
	C747.654114,496.952576 753.846863,497.977020 760.080811,498.413940 
	C776.693481,499.578217 787.300720,489.989990 788.181030,472.470520 
M235.198700,453.729431 
	C227.368027,464.326050 226.940201,480.451141 234.246094,489.631683 
	C241.680511,498.973663 258.556824,501.501648 273.409271,495.288147 
	C272.836365,491.673187 272.248657,487.964752 271.657593,484.235077 
	C253.492844,488.133850 246.063858,486.179932 244.173187,476.727905 
	C254.815491,476.727905 265.369110,476.727905 275.817749,476.727905 
	C278.172943,463.676331 273.918823,452.715668 264.956787,448.024780 
	C255.353500,442.998230 243.926468,445.020599 235.198700,453.729431 
M844.174011,473.139954 
	C844.111267,470.811157 844.222900,468.462097 843.954895,466.157166 
	C842.924805,457.298370 839.126160,450.267761 830.328918,446.964508 
	C817.475647,442.138245 804.053894,447.951263 798.959534,460.410797 
	C793.025391,474.924225 798.249695,491.035278 810.979065,496.262329 
	C820.989197,500.372833 831.042419,498.822235 841.257507,495.531403 
	C840.601135,491.524536 840.017090,487.959015 839.433228,484.394501 
	C819.369690,487.626587 813.885071,486.191284 812.000366,476.847076 
	C813.695801,476.847076 815.292908,476.847107 816.889954,476.847076 
	C824.880432,476.847015 832.872070,476.772156 840.860657,476.894897 
	C843.094849,476.929230 844.429016,476.527924 844.174011,473.139954 
M384.381287,495.594238 
	C384.440826,484.634003 384.960907,473.651062 384.421326,462.720398 
	C383.948395,453.141357 379.399170,447.967926 371.260803,446.242126 
	C362.800751,444.448120 354.455963,445.551727 345.895111,447.866486 
	C346.506317,451.664398 347.079651,455.226959 347.616608,458.563599 
	C353.047760,458.161041 358.161896,457.338806 363.239319,457.524017 
	C368.877106,457.729767 370.967804,460.739105 370.430054,465.623291 
	C364.571136,466.100769 358.723633,466.030121 353.117920,467.159576 
	C344.213409,468.953674 339.842834,476.114441 341.387482,485.025757 
	C342.725555,492.744995 348.129089,497.720551 357.360229,497.834412 
	C366.101288,497.942291 374.859497,496.659027 384.381287,495.594238 
M630.819458,469.499054 
	C630.819458,474.814911 630.819458,480.130798 630.819458,485.390656 
	C619.323730,487.635468 616.142639,485.225494 615.945679,473.995178 
	C615.789062,465.061096 615.914124,456.122070 615.914124,447.142700 
	C610.817017,447.142700 606.240906,447.142700 601.945496,447.142700 
	C601.945496,458.605042 601.535034,469.761993 602.068481,480.873657 
	C602.540588,490.707703 608.619873,497.408264 617.797546,497.814270 
	C626.774963,498.211456 635.817017,497.147034 644.825806,496.724396 
	C644.825806,479.206848 644.825806,463.144501 644.825806,447.175354 
	C640.004883,447.175354 635.444153,447.175354 630.819458,447.175354 
	C630.819458,454.520386 630.819458,461.509674 630.819458,469.499054 
M855.141907,455.705750 
	C855.141907,469.436249 855.141907,483.166779 855.141907,496.860901 
	C860.349365,496.860901 864.928467,496.860901 869.727478,496.860901 
	C869.727478,485.222687 869.868164,473.907501 869.645264,462.599518 
	C869.574707,459.022308 870.873169,457.743774 874.202820,458.006531 
	C877.978943,458.304474 881.754822,458.605560 885.846802,458.930359 
	C886.580566,455.167511 887.319641,451.377289 888.079834,447.479156 
	C878.394043,445.041382 869.453491,445.486206 860.402954,447.799164 
	C856.348877,448.835175 854.264404,450.449341 855.141907,455.705750 
M478.688721,477.498840 
	C478.688721,483.948090 478.688721,490.397369 478.688721,496.776794 
	C483.697357,496.776794 488.234436,496.776794 492.686340,496.776794 
	C492.686340,479.980743 492.686340,463.581696 492.686340,447.004700 
	C488.004456,447.004700 483.570892,447.004700 478.688751,447.004700 
	C478.688751,456.945129 478.688751,466.722137 478.688721,477.498840 
M336.296112,564.799500 
	C324.953308,565.309814 318.487732,571.314270 317.219330,582.515747 
	C316.035828,592.967590 321.341217,602.370911 329.885040,604.964417 
	C340.678894,608.240906 350.702576,602.172607 353.219177,590.838013 
	C356.204071,577.394226 349.514374,566.627380 336.296112,564.799500 
M675.922180,576.598083 
	C675.535828,578.375916 674.980957,580.136108 674.792053,581.934692 
	C673.931763,590.127197 675.075928,597.871948 682.623413,602.611023 
	C690.024414,607.257996 697.964417,606.442078 706.093811,603.333862 
	C705.534485,601.231323 705.093506,599.573669 704.655396,597.926819 
	C689.919983,601.722107 682.382996,598.032593 682.347229,586.819946 
	C691.055237,586.819946 699.767456,586.819946 710.195496,586.819946 
	C708.149109,580.581116 707.317810,574.832947 704.538208,570.272095 
	C699.471680,561.959045 681.675415,562.046204 675.922180,576.598083 
M424.022797,566.097534 
	C416.263306,563.846619 408.714294,564.949829 401.470642,566.973083 
	C401.470642,579.911987 401.470642,592.294312 401.470642,604.551331 
	C403.821045,604.551331 405.746796,604.551331 408.192810,604.551331 
	C408.192810,593.524841 408.192810,582.794373 408.192810,572.213013 
	C421.239716,568.971375 425.505798,572.214478 425.617523,584.938843 
	C425.637970,587.268799 425.620728,589.599060 425.620758,591.929199 
	C425.620819,596.161316 425.620758,600.393433 425.620758,604.561646 
	C428.365234,604.561646 430.291382,604.561646 432.046478,604.561646 
	C432.046478,594.999512 432.321381,585.727295 431.928619,576.483459 
	C431.736816,571.969604 429.102539,568.384338 424.022797,566.097534 
M627.536255,603.834656 
	C627.413574,594.866699 627.690369,585.869385 627.035645,576.940430 
	C626.553467,570.364807 622.617981,565.968567 616.446106,565.447388 
	C609.792053,564.885376 603.016602,565.761780 596.370972,566.007812 
	C596.370972,579.677490 596.370972,592.085754 596.370972,604.469788 
	C598.742737,604.469788 600.786072,604.469788 603.172241,604.469788 
	C603.172241,593.468018 603.172241,582.851562 603.172241,571.919006 
	C605.588989,571.619202 607.697021,571.190857 609.816162,571.125366 
	C616.873962,570.907227 619.471130,573.113403 620.316040,580.135864 
	C620.632446,582.765381 620.589233,585.444763 620.608765,588.102112 
	C620.648926,593.565491 620.620789,599.029297 620.620789,604.891418 
	C623.096497,604.749634 625.051575,604.637695 627.536255,603.834656 
M481.345245,593.170227 
	C482.038361,602.917603 484.590607,605.502625 493.566223,605.060608 
	C493.776825,603.418091 493.997711,601.695435 494.259033,599.657410 
	C489.241486,599.215759 488.563477,596.071045 488.624786,592.201416 
	C488.740601,584.894714 488.656891,577.584839 488.656616,570.276245 
	C488.656311,562.520142 488.656555,554.764038 488.656555,547.016724 
	C481.349518,547.085938 481.345490,547.085938 481.344238,553.374451 
	C481.341705,566.330566 481.343933,579.286621 481.345245,593.170227 
M540.180298,604.432495 
	C542.229431,604.546692 544.278564,604.660889 546.541443,604.786987 
	C546.541443,591.509033 546.541443,578.918579 546.541443,566.050415 
	C544.298523,566.050415 542.232117,566.050415 539.868042,566.050415 
	C539.868042,578.736328 539.868042,591.190491 540.180298,604.432495 
M482.625092,424.146179 
	C477.068787,427.535675 475.487793,432.374908 478.456818,436.904816 
	C480.899841,440.632172 486.393951,441.740662 490.352509,439.289093 
	C494.196350,436.908569 495.071411,433.161713 493.772095,429.337891 
	C492.150848,424.566589 488.125458,423.229370 482.625092,424.146179 
M543.436768,558.764893 
	C544.848694,557.019043 546.696350,555.436401 547.443481,553.441467 
	C547.716248,552.713196 545.387207,549.997375 544.219788,549.980835 
	C542.477722,549.956116 539.790649,551.094849 539.147766,552.493469 
	C537.755127,555.523438 539.248352,557.944153 543.436768,558.764893 
z"/>
<path fill="#FBFBFB" opacity="1.000000" stroke="none" 
	d="
M209.847031,434.716736 
	C209.869247,432.001007 210.484467,430.590912 213.315857,430.759705 
	C217.294357,430.996948 221.297562,430.819702 226.592896,430.819702 
	C220.862411,453.189697 215.253723,475.084290 209.730515,496.645142 
	C208.318100,496.959442 207.850616,497.147369 207.379807,497.156006 
	C194.917343,497.386047 194.901810,497.387970 191.003677,485.457184 
	C189.560623,481.040527 188.209259,476.593933 186.816010,472.160980 
	C185.472488,467.886261 184.128845,463.611542 182.401947,458.117310 
	C178.081757,471.724792 174.084457,484.315277 170.177917,496.619843 
	C169.410507,496.908997 169.113159,497.114716 168.811523,497.121216 
	C155.763519,497.402191 155.494995,497.470886 152.151550,484.804840 
	C147.574646,467.466125 143.452209,450.007416 139.157745,432.594543 
	C139.048538,432.151703 139.204605,431.643463 139.248459,430.995636 
	C144.427902,430.995636 149.524673,430.995636 154.850052,430.995636 
	C157.878143,445.775574 160.905182,460.550476 163.932236,475.325348 
	C164.463913,475.419708 164.995590,475.514038 165.527267,475.608368 
	C169.189087,463.231964 172.850891,450.855591 176.569733,438.286438 
	C176.774658,438.227478 177.238251,437.992401 177.710617,437.973175 
	C188.964462,437.515472 188.936722,437.528046 192.154984,448.282745 
	C194.391083,455.755371 196.697845,463.207062 199.019318,470.653687 
	C199.476273,472.119476 200.145096,473.519196 200.716217,474.949402 
	C201.141983,474.929169 201.567764,474.908936 201.993530,474.888733 
	C204.594009,461.634918 207.194489,448.381104 209.847031,434.716736 
z"/>
<path fill="#F9F9FA" opacity="1.000000" stroke="none" 
	d="
M561.328979,453.630524 
	C564.974426,458.722931 568.404602,463.527069 572.668701,469.499023 
	C572.668701,455.790710 572.668701,443.563324 572.668701,431.078064 
	C577.809998,431.078064 582.555481,431.078064 587.510498,431.078064 
	C587.510498,453.019806 587.510498,474.795532 587.510498,497.177521 
	C583.885376,497.177521 580.245300,497.434601 576.678040,497.037628 
	C575.434814,496.899292 574.089233,495.333374 573.268982,494.100922 
	C564.449219,480.848206 555.725220,467.531708 546.975037,454.232666 
	C546.415283,454.460480 545.855591,454.688263 545.295898,454.916046 
	C545.295898,468.907043 545.295898,482.898010 545.295898,496.989929 
	C540.050415,496.989929 535.419434,496.989929 530.534973,496.989929 
	C530.534973,475.043762 530.534973,453.286499 530.534973,431.250580 
	C537.549805,430.072357 543.952271,429.962372 548.629333,437.127319 
	C552.346741,442.822144 556.920288,447.958130 561.328979,453.630524 
z"/>
<path fill="#F9F9FA" opacity="1.000000" stroke="none" 
	d="
M691.219238,497.180908 
	C689.307678,497.110138 687.844482,497.039337 686.145813,496.957123 
	C686.145813,487.522064 686.238464,478.371094 686.120789,469.222839 
	C685.992981,459.283234 683.774597,457.386566 673.168213,458.227936 
	C673.168213,471.046906 673.168213,483.932678 673.168213,496.995148 
	C668.137817,496.995148 663.674377,496.995148 658.841919,496.995148 
	C658.841919,480.920654 658.841919,464.884430 658.841919,448.285400 
	C670.100159,446.403717 681.359619,442.669312 692.590454,449.226440 
	C693.491699,449.752655 695.240540,448.886505 696.579285,448.593170 
	C700.906433,447.644867 705.220276,445.876099 709.549683,445.844177 
	C721.097412,445.759003 727.263611,452.009338 728.040649,463.573120 
	C728.118713,464.735413 728.173401,465.901794 728.174622,467.066345 
	C728.185120,476.885345 728.180603,486.704346 728.180603,496.851990 
	C723.500061,496.851990 718.932739,496.851990 713.988403,496.851990 
	C713.988403,489.249878 713.992493,481.621124 713.985779,473.992371 
	C713.983826,471.827789 714.044861,469.657471 713.914734,467.499603 
	C713.362976,458.347687 708.667847,455.710632 700.311279,459.634338 
	C700.311279,471.999115 700.311279,484.282593 700.311279,497.180908 
	C697.549500,497.180908 694.608582,497.180908 691.219238,497.180908 
z"/>
<path fill="#FCFCFC" opacity="1.000000" stroke="none" 
	d="
M286.406616,461.593567 
	C289.878052,451.623566 296.990723,446.513611 306.749146,446.066376 
	C314.641724,445.704620 322.603638,446.855652 331.078033,447.368561 
	C331.078033,451.934021 331.080170,455.548798 331.077606,459.163574 
	C331.069580,470.494812 331.233398,481.829498 331.005737,493.156342 
	C330.735840,506.585144 322.900452,514.461853 309.515015,515.042786 
	C305.862274,515.201294 302.163483,515.211487 298.537689,514.815247 
	C295.110535,514.440735 291.751495,513.442566 287.699341,512.577087 
	C288.514862,508.487244 289.272522,504.687714 289.930908,501.385803 
	C296.094604,501.973114 301.807953,502.943970 307.522339,502.950073 
	C314.115570,502.957123 317.181549,498.886078 316.537964,492.303711 
	C313.959930,492.832733 311.393646,493.628754 308.778503,493.851807 
	C292.969025,495.200195 282.737427,483.157043 285.337769,466.365662 
	C285.566833,464.886414 285.941315,463.429688 286.406616,461.593567 
M299.833191,469.625122 
	C299.852722,470.454926 299.842255,471.286682 299.896423,472.114227 
	C300.448029,480.543915 306.005341,484.425659 313.877167,481.593292 
	C315.166199,481.129486 316.735199,479.229370 316.793213,477.931335 
	C317.088562,471.323242 316.929443,464.694855 316.929443,458.177917 
	C306.969666,455.081360 301.137878,458.801483 299.833191,469.625122 
z"/>
<path fill="#FCFCFC" opacity="1.000000" stroke="none" 
	d="
M428.753113,494.315735 
	C414.453339,485.645660 415.851105,459.565674 426.267700,450.708099 
	C432.255798,445.616211 439.190613,445.121155 446.499481,446.344177 
	C447.774750,446.557587 449.000366,447.068054 450.748016,447.590546 
	C450.748016,439.943451 450.748016,432.718872 450.748016,425.144928 
	C455.600342,424.346436 460.106567,423.604919 464.923889,422.812164 
	C464.923889,447.294006 464.923889,471.357849 464.923889,495.856354 
	C452.853607,498.089691 440.828400,501.116180 428.753113,494.315735 
M443.529236,457.844513 
	C440.774170,459.051575 437.285950,459.582886 435.418976,461.608490 
	C431.709320,465.633301 432.048126,476.681610 435.300842,481.518188 
	C439.161102,487.258087 444.821045,486.419250 450.930450,485.746613 
	C450.930450,478.744629 450.476440,471.923737 451.072174,465.195770 
	C451.560425,459.681915 449.148712,458.014679 443.529236,457.844513 
z"/>
<path fill="#F9F9FA" opacity="1.000000" stroke="none" 
	d="
M788.180664,472.891357 
	C787.300720,489.989990 776.693481,499.578217 760.080811,498.413940 
	C753.846863,497.977020 747.654114,496.952576 741.350098,496.184753 
	C741.350098,472.092743 741.350098,448.824097 741.350098,425.115997 
	C745.936035,424.348175 750.572266,423.571930 755.651733,422.721466 
	C755.651733,431.152008 755.651733,438.931458 755.651733,447.251160 
	C758.258423,446.766296 760.423462,446.203735 762.622925,445.980377 
	C777.082886,444.511963 786.653870,452.461792 787.962952,466.984375 
	C788.127075,468.804840 788.112732,470.641418 788.180664,472.891357 
M763.059082,486.127289 
	C767.165955,486.101776 770.029663,483.963104 771.706970,480.451843 
	C774.415100,474.782867 774.495850,468.859619 772.049683,463.108551 
	C769.868164,457.979706 761.803650,455.936279 757.062500,459.142822 
	C756.392883,459.595764 755.784912,460.683716 755.775574,461.485046 
	C755.681458,469.555847 755.718201,477.628204 755.718201,486.157013 
	C758.240234,486.157013 760.202332,486.157013 763.059082,486.127289 
z"/>
<path fill="#F9F9FA" opacity="1.000000" stroke="none" 
	d="
M235.441315,453.467468 
	C243.926468,445.020599 255.353500,442.998230 264.956787,448.024780 
	C273.918823,452.715668 278.172943,463.676331 275.817749,476.727905 
	C265.369110,476.727905 254.815491,476.727905 244.173187,476.727905 
	C246.063858,486.179932 253.492844,488.133850 271.657593,484.235077 
	C272.248657,487.964752 272.836365,491.673187 273.409271,495.288147 
	C258.556824,501.501648 241.680511,498.973663 234.246094,489.631683 
	C226.940201,480.451141 227.368027,464.326050 235.441315,453.467468 
M246.024307,466.922272 
	C251.468506,466.922272 256.912720,466.922272 262.401642,466.922272 
	C261.392212,458.327057 254.120468,454.417511 247.975662,458.966736 
	C245.502777,460.797485 242.948364,463.150940 246.024307,466.922272 
z"/>
<path fill="#F9F9FA" opacity="1.000000" stroke="none" 
	d="
M844.151428,473.563599 
	C844.429016,476.527924 843.094849,476.929230 840.860657,476.894897 
	C832.872070,476.772156 824.880432,476.847015 816.889954,476.847076 
	C815.292908,476.847107 813.695801,476.847076 812.000366,476.847076 
	C813.885071,486.191284 819.369690,487.626587 839.433228,484.394501 
	C840.017090,487.959015 840.601135,491.524536 841.257507,495.531403 
	C831.042419,498.822235 820.989197,500.372833 810.979065,496.262329 
	C798.249695,491.035278 793.025391,474.924225 798.959534,460.410797 
	C804.053894,447.951263 817.475647,442.138245 830.328918,446.964508 
	C839.126160,450.267761 842.924805,457.298370 843.954895,466.157166 
	C844.222900,468.462097 844.111267,470.811157 844.151428,473.563599 
M816.693604,466.924011 
	C821.122620,466.924011 825.551697,466.924011 830.008911,466.924011 
	C829.457275,460.256134 826.429749,457.094360 821.161072,457.174286 
	C815.703857,457.257111 812.298645,460.914581 812.283691,466.923981 
	C813.442078,466.923981 814.600220,466.923981 816.693604,466.924011 
z"/>
<path fill="#F9F9FA" opacity="1.000000" stroke="none" 
	d="
M383.995728,495.790894 
	C374.859497,496.659027 366.101288,497.942291 357.360229,497.834412 
	C348.129089,497.720551 342.725555,492.744995 341.387482,485.025757 
	C339.842834,476.114441 344.213409,468.953674 353.117920,467.159576 
	C358.723633,466.030121 364.571136,466.100769 370.430054,465.623291 
	C370.967804,460.739105 368.877106,457.729767 363.239319,457.524017 
	C358.161896,457.338806 353.047760,458.161041 347.616608,458.563599 
	C347.079651,455.226959 346.506317,451.664398 345.895111,447.866486 
	C354.455963,445.551727 362.800751,444.448120 371.260803,446.242126 
	C379.399170,447.967926 383.948395,453.141357 384.421326,462.720398 
	C384.960907,473.651062 384.440826,484.634003 383.995728,495.790894 
M370.903320,486.248199 
	C370.903320,482.847137 370.903320,479.446045 370.903320,476.010956 
	C366.906464,476.010956 363.265381,475.357086 360.059784,476.256012 
	C358.134888,476.795837 355.647888,479.787292 355.690430,481.624207 
	C355.732361,483.435333 358.368561,486.167633 360.361603,486.724670 
	C363.429443,487.582153 366.919983,486.927277 370.903320,486.248199 
z"/>
<path fill="#FBFBFB" opacity="1.000000" stroke="none" 
	d="
M630.819458,468.999023 
	C630.819458,461.509674 630.819458,454.520386 630.819458,447.175354 
	C635.444153,447.175354 640.004883,447.175354 644.825806,447.175354 
	C644.825806,463.144501 644.825806,479.206848 644.825806,496.724396 
	C635.817017,497.147034 626.774963,498.211456 617.797546,497.814270 
	C608.619873,497.408264 602.540588,490.707703 602.068481,480.873657 
	C601.535034,469.761993 601.945496,458.605042 601.945496,447.142700 
	C606.240906,447.142700 610.817017,447.142700 615.914124,447.142700 
	C615.914124,456.122070 615.789062,465.061096 615.945679,473.995178 
	C616.142639,485.225494 619.323730,487.635468 630.819458,485.390656 
	C630.819458,480.130798 630.819458,474.814911 630.819458,468.999023 
z"/>
<path fill="#F7F7F7" opacity="1.000000" stroke="none" 
	d="
M855.141907,455.238739 
	C854.264404,450.449341 856.348877,448.835175 860.402954,447.799164 
	C869.453491,445.486206 878.394043,445.041382 888.079834,447.479156 
	C887.319641,451.377289 886.580566,455.167511 885.846802,458.930359 
	C881.754822,458.605560 877.978943,458.304474 874.202820,458.006531 
	C870.873169,457.743774 869.574707,459.022308 869.645264,462.599518 
	C869.868164,473.907501 869.727478,485.222687 869.727478,496.860901 
	C864.928467,496.860901 860.349365,496.860901 855.141907,496.860901 
	C855.141907,483.166779 855.141907,469.436249 855.141907,455.238739 
z"/>
<path fill="#FCFCFC" opacity="1.000000" stroke="none" 
	d="
M478.688721,476.998993 
	C478.688751,466.722137 478.688751,456.945129 478.688751,447.004700 
	C483.570892,447.004700 488.004456,447.004700 492.686340,447.004700 
	C492.686340,463.581696 492.686340,479.980743 492.686340,496.776794 
	C488.234436,496.776794 483.697357,496.776794 478.688721,496.776794 
	C478.688721,490.397369 478.688721,483.948090 478.688721,476.998993 
z"/>
<path fill="#E4B026" opacity="1.000000" stroke="none" 
	d="
M336.687378,564.829895 
	C349.514374,566.627380 356.204071,577.394226 353.219177,590.838013 
	C350.702576,602.172607 340.678894,608.240906 329.885040,604.964417 
	C321.341217,602.370911 316.035828,592.967590 317.219330,582.515747 
	C318.487732,571.314270 324.953308,565.309814 336.687378,564.829895 
M335.505127,599.550842 
	C338.398193,597.910400 342.345306,596.963440 343.972504,594.490173 
	C347.769012,588.719727 347.449646,582.092285 344.176239,576.014771 
	C341.343750,570.755798 334.709900,569.178040 329.977173,572.563477 
	C323.936066,576.884766 324.107422,583.338501 325.010315,589.744263 
	C325.834412,595.590881 328.601471,598.184387 335.505127,599.550842 
z"/>
<path fill="#E4B026" opacity="1.000000" stroke="none" 
	d="
M676.039368,576.229614 
	C681.675415,562.046204 699.471680,561.959045 704.538208,570.272095 
	C707.317810,574.832947 708.149109,580.581116 710.195496,586.819946 
	C699.767456,586.819946 691.055237,586.819946 682.347229,586.819946 
	C682.382996,598.032593 689.919983,601.722107 704.655396,597.926819 
	C705.093506,599.573669 705.534485,601.231323 706.093811,603.333862 
	C697.964417,606.442078 690.024414,607.257996 682.623413,602.611023 
	C675.075928,597.871948 673.931763,590.127197 674.792053,581.934692 
	C674.980957,580.136108 675.535828,578.375916 676.039368,576.229614 
M682.734558,578.333984 
	C683.314941,579.398560 683.854797,581.358765 684.482056,581.387146 
	C689.883057,581.631775 695.299805,581.527771 700.669250,581.527771 
	C701.035034,575.930176 698.713318,572.042419 694.754944,571.048889 
	C689.769226,569.797485 685.866150,571.957764 682.734558,578.333984 
z"/>
<path fill="#E4B026" opacity="1.000000" stroke="none" 
	d="
M424.374634,566.278259 
	C429.102539,568.384338 431.736816,571.969604 431.928619,576.483459 
	C432.321381,585.727295 432.046478,594.999512 432.046478,604.561646 
	C430.291382,604.561646 428.365234,604.561646 425.620758,604.561646 
	C425.620758,600.393433 425.620819,596.161316 425.620758,591.929199 
	C425.620728,589.599060 425.637970,587.268799 425.617523,584.938843 
	C425.505798,572.214478 421.239716,568.971375 408.192810,572.213013 
	C408.192810,582.794373 408.192810,593.524841 408.192810,604.551331 
	C405.746796,604.551331 403.821045,604.551331 401.470642,604.551331 
	C401.470642,592.294312 401.470642,579.911987 401.470642,566.973083 
	C408.714294,564.949829 416.263306,563.846619 424.374634,566.278259 
z"/>
<path fill="#E4B026" opacity="1.000000" stroke="none" 
	d="
M627.271484,604.180176 
	C625.051575,604.637695 623.096497,604.749634 620.620789,604.891418 
	C620.620789,599.029297 620.648926,593.565491 620.608765,588.102112 
	C620.589233,585.444763 620.632446,582.765381 620.316040,580.135864 
	C619.471130,573.113403 616.873962,570.907227 609.816162,571.125366 
	C607.697021,571.190857 605.588989,571.619202 603.172241,571.919006 
	C603.172241,582.851562 603.172241,593.468018 603.172241,604.469788 
	C600.786072,604.469788 598.742737,604.469788 596.370972,604.469788 
	C596.370972,592.085754 596.370972,579.677490 596.370972,566.007812 
	C603.016602,565.761780 609.792053,564.885376 616.446106,565.447388 
	C622.617981,565.968567 626.553467,570.364807 627.035645,576.940430 
	C627.690369,585.869385 627.413574,594.866699 627.271484,604.180176 
z"/>
<path fill="#D4A525" opacity="1.000000" stroke="none" 
	d="
M481.344696,592.706482 
	C481.343933,579.286621 481.341705,566.330566 481.344238,553.374451 
	C481.345490,547.085938 481.349518,547.085938 488.656555,547.016724 
	C488.656555,554.764038 488.656311,562.520142 488.656616,570.276245 
	C488.656891,577.584839 488.740601,584.894714 488.624786,592.201416 
	C488.563477,596.071045 489.241486,599.215759 494.259033,599.657410 
	C493.997711,601.695435 493.776825,603.418091 493.566223,605.060608 
	C484.590607,605.502625 482.038361,602.917603 481.344696,592.706482 
z"/>
<path fill="#E4B026" opacity="1.000000" stroke="none" 
	d="
M540.024170,604.038574 
	C539.868042,591.190491 539.868042,578.736328 539.868042,566.050415 
	C542.232117,566.050415 544.298523,566.050415 546.541443,566.050415 
	C546.541443,578.918579 546.541443,591.509033 546.541443,604.786987 
	C544.278564,604.660889 542.229431,604.546692 540.024170,604.038574 
z"/>
<path fill="#F9F9FA" opacity="1.000000" stroke="none" 
	d="
M482.980316,424.067932 
	C488.125458,423.229370 492.150848,424.566589 493.772095,429.337891 
	C495.071411,433.161713 494.196350,436.908569 490.352509,439.289093 
	C486.393951,441.740662 480.899841,440.632172 478.456818,436.904816 
	C475.487793,432.374908 477.068787,427.535675 482.980316,424.067932 
z"/>
<path fill="#E4B026" opacity="1.000000" stroke="none" 
	d="
M543.071045,558.762329 
	C539.248352,557.944153 537.755127,555.523438 539.147766,552.493469 
	C539.790649,551.094849 542.477722,549.956116 544.219788,549.980835 
	C545.387207,549.997375 547.716248,552.713196 547.443481,553.441467 
	C546.696350,555.436401 544.848694,557.019043 543.071045,558.762329 
z"/>
<path fill="#15151D" opacity="1.000000" stroke="none" 
	d="
M299.852539,469.188599 
	C301.137878,458.801483 306.969666,455.081360 316.929443,458.177917 
	C316.929443,464.694855 317.088562,471.323242 316.793213,477.931335 
	C316.735199,479.229370 315.166199,481.129486 313.877167,481.593292 
	C306.005341,484.425659 300.448029,480.543915 299.896423,472.114227 
	C299.842255,471.286682 299.852722,470.454926 299.852539,469.188599 
z"/>
<path fill="#15151D" opacity="1.000000" stroke="none" 
	d="
M443.958130,457.879944 
	C449.148712,458.014679 451.560425,459.681915 451.072174,465.195770 
	C450.476440,471.923737 450.930450,478.744629 450.930450,485.746613 
	C444.821045,486.419250 439.161102,487.258087 435.300842,481.518188 
	C432.048126,476.681610 431.709320,465.633301 435.418976,461.608490 
	C437.285950,459.582886 440.774170,459.051575 443.958130,457.879944 
z"/>
<path fill="#15151D" opacity="1.000000" stroke="none" 
	d="
M762.611694,486.142151 
	C760.202332,486.157013 758.240234,486.157013 755.718201,486.157013 
	C755.718201,477.628204 755.681458,469.555847 755.775574,461.485046 
	C755.784912,460.683716 756.392883,459.595764 757.062500,459.142822 
	C761.803650,455.936279 769.868164,457.979706 772.049683,463.108551 
	C774.495850,468.859619 774.415100,474.782867 771.706970,480.451843 
	C770.029663,483.963104 767.165955,486.101776 762.611694,486.142151 
z"/>
<path fill="#15151D" opacity="1.000000" stroke="none" 
	d="
M245.585327,466.913269 
	C242.948364,463.150940 245.502777,460.797485 247.975662,458.966736 
	C254.120468,454.417511 261.392212,458.327057 262.401642,466.922272 
	C256.912720,466.922272 251.468506,466.922272 245.585327,466.913269 
z"/>
<path fill="#15151D" opacity="1.000000" stroke="none" 
	d="
M816.225952,466.924011 
	C814.600220,466.923981 813.442078,466.923981 812.283691,466.923981 
	C812.298645,460.914581 815.703857,457.257111 821.161072,457.174286 
	C826.429749,457.094360 829.457275,460.256134 830.008911,466.924011 
	C825.551697,466.924011 821.122620,466.924011 816.225952,466.924011 
z"/>
<path fill="#15151D" opacity="1.000000" stroke="none" 
	d="
M370.567261,486.581116 
	C366.919983,486.927277 363.429443,487.582153 360.361603,486.724670 
	C358.368561,486.167633 355.732361,483.435333 355.690430,481.624207 
	C355.647888,479.787292 358.134888,476.795837 360.059784,476.256012 
	C363.265381,475.357086 366.906464,476.010956 370.903320,476.010956 
	C370.903320,479.446045 370.903320,482.847137 370.567261,486.581116 
z"/>
<path fill="#111119" opacity="1.000000" stroke="none" 
	d="
M335.081360,599.499146 
	C328.601471,598.184387 325.834412,595.590881 325.010315,589.744263 
	C324.107422,583.338501 323.936066,576.884766 329.977173,572.563477 
	C334.709900,569.178040 341.343750,570.755798 344.176239,576.014771 
	C347.449646,582.092285 347.769012,588.719727 343.972504,594.490173 
	C342.345306,596.963440 338.398193,597.910400 335.081360,599.499146 
z"/>
<path fill="#15151D" opacity="1.000000" stroke="none" 
	d="
M682.834839,577.962341 
	C685.866150,571.957764 689.769226,569.797485 694.754944,571.048889 
	C698.713318,572.042419 701.035034,575.930176 700.669250,581.527771 
	C695.299805,581.527771 689.883057,581.631775 684.482056,581.387146 
	C683.854797,581.358765 683.314941,579.398560 682.834839,577.962341 
z"/>
</svg>